<svg xmlns="http://www.w3.org/2000/svg" width="360" height="360"><svg xmlns="http://www.w3.org/2000/svg" width="360" height="360" viewBox="0 0 360 360"><path fill="#40A0E0" fill-rule="evenodd" d="M81.198 6.633C75.453 9.534 75 11.572 75 34.546c0 19.211.142 20.845 2.05 23.525 2.894 4.063 8.445 5.585 13.17 3.61 6.657-2.781 7.24-4.75 7.596-25.634.228-13.419-.048-19.627-1-22.451-2.324-6.895-9.456-10.075-15.618-6.963M269 6.711c-6.416 3.28-7.097 6.137-6.779 28.469.317 22.35.85 24.043 8.409 26.717 3.493 1.235 4.355 1.204 7.454-.266 6.461-3.067 6.916-4.91 6.916-28.05v-20.61l-3.25-3.488c-4.007-4.301-8.043-5.179-12.75-2.772M25.802 34.391C16.249 38.32 9.583 45.153 6.024 54.665c-2.037 5.446-2.051 6.479-1.788 136.661L4.5 322.5l3.249 6.642c4.116 8.411 12.839 16.743 20.966 20.023L34.5 351.5h145c157.925 0 147.304.399 157.803-5.924 3.069-1.848 5.903-3.071 6.299-2.718.395.353.432.14.082-.474s.247-1.917 1.328-2.895c3.086-2.792 7.6-10.508 9.386-16.041 1.48-4.583 1.607-17.207 1.367-136L355.5 56.5l-2.468-5c-3.154-6.389-10.143-13.378-16.532-16.532-4.707-2.323-6.13-2.486-24.25-2.777l-19.25-.31v12.244c0 14.086-1.585 18.931-7.722 23.612-4.826 3.681-14.178 4.375-19.86 1.475C256.945 64.888 255 60.187 255 44.032V32H105v12.54c0 10.645-.308 13.143-2.038 16.535-1.121 2.198-2.483 3.721-3.025 3.386-.543-.335-.863-.014-.712.715.151.728-.321 1.2-1.049 1.049-.729-.151-1.034.196-.678.771C98.517 68.646 91.601 71 85.732 71c-7.198 0-12.879-3.647-16.264-10.441C67.263 56.135 67 54.348 67 43.804V32l-17.75.024c-16.299.022-18.216.215-23.448 2.367m6.653 60.064L30 96.909V206.55c0 122.408-.56 113.081 7.046 117.356L40.772 326h139.154c134.871 0 139.268-.059 142.864-1.905 7.778-3.993 7.21 5.299 7.21-117.927V96.145l-2.635-2.072L324.73 92H34.909l-2.454 2.455m127.657 32.126c-2.963.796-7.161 2.753-9.329 4.347-9.13 6.714-11.997 14.324-11.568 30.699l.285 10.873h81V160c0-14.573-1.45-19.646-7.353-25.73-7.117-7.333-14.514-9.305-34.533-9.204-8.101.04-15.174.62-18.502 1.515M55.923 159.923c-2.099 2.1-2.923 3.894-2.923 6.368 0 7.025 10.873 64.815 13.035 69.281 1.173 2.423 4.064 6.106 6.425 8.184l4.292 3.778-4.85 21.983c-2.668 12.091-4.862 23.199-4.876 24.686-.089 9.326 10.641 14.039 16.868 7.409 1.738-1.849 3.334-7.554 7.41-26.477l5.196-24.119 14.683-.008c13.127-.007 14.736.177 15.189 1.742.279.963 1.686 11.425 3.128 23.25 2.785 22.845 3.538 25.205 8.876 27.822 5.996 2.94 13.63-2.469 13.618-9.649-.013-7.53-5.949-50.183-7.359-52.876-1.974-3.77-7.499-8.934-10.95-10.236-1.657-.624-11.405-1.061-23.694-1.061-20.27 0-20.957-.066-23.52-2.272-2.468-2.122-2.996-4.27-8.042-32.667-2.97-16.718-5.659-31.209-5.974-32.203-1.003-3.159-5.457-5.858-9.667-5.858-3.023 0-4.623.681-6.865 2.923m233.978.183c-1.595 1.708-2.901 3.436-2.901 3.84 0 .404-2.454 14.386-5.454 31.07-4.453 24.771-5.833 30.716-7.525 32.41-1.942 1.945-3.49 2.105-24.885 2.574l-22.815.5-3.984 2.764c-6.867 4.763-8.22 8.477-10.919 29.982-1.323 10.537-2.696 22.649-3.052 26.916l-.647 7.757 3.541 3.541c3.898 3.898 7.053 4.464 11.649 2.087 1.545-.799 3.314-2.711 3.931-4.25.617-1.538 2.266-12.472 3.663-24.297 1.397-11.825 2.741-22.062 2.987-22.75.33-.922 4.245-1.25 14.911-1.25 12.913 0 14.519.188 14.979 1.75.284.963 2.585 11.381 5.114 23.151 2.528 11.771 4.985 22.126 5.459 23.011 1.6 2.99 4.78 5.17 8.396 5.757 3.16.513 4.027.155 7.124-2.942 2.424-2.424 3.516-4.418 3.49-6.377-.02-1.567-2.247-12.975-4.95-25.35-4.438-20.327-4.759-22.618-3.316-23.718.879-.67 2.051-.938 2.605-.595.554.342.723.163.376-.399-.347-.561.305-1.868 1.449-2.903 5.278-4.777 6.561-9.08 12.289-41.219 3.071-17.234 5.584-32.906 5.584-34.827 0-5.163-4.481-9.339-10.022-9.339-3.382 0-4.727.59-7.077 3.106m-187.58 22.497c-1.772.88-3.917 3.133-4.846 5.091-1.452 3.061-1.494 3.97-.32 7.052.74 1.947 2.616 4.488 4.168 5.647 2.735 2.042 3.825 2.107 35.499 2.107H169.5l.607 48.5c.605 48.31.702 51.03 1.81 50.732.32-.086 1.645.431 2.944 1.15 2.133 1.181 5.97 1.142 11.556-.116 1.054-.238 2.16-1.295 2.458-2.349.297-1.054.68-23.517.851-49.917l.31-48 30.732.305c19.943.198 32.03-.074 34.428-.774 8.049-2.35 10.634-11.946 4.739-17.594l-3.066-2.937-75.684-.237c-67.238-.211-76.04-.061-78.864 1.34"/></svg><svg xmlns="http://www.w3.org/2000/svg" width="360" height="360" viewBox="0 0 360 360"><path fill="#2080E0" fill-rule="evenodd" d="M78.4 9.4 75 12.8v42.4l3.4 3.4c2.837 2.837 4.121 3.396 7.75 3.378 4.601-.024 7.802-1.885 9.733-5.662.716-1.401 1.117-9.6 1.117-22.85V12.8l-3.4-3.4C90.813 6.613 89.443 6 86 6c-3.443 0-4.813.613-7.6 3.4m189.488-1.9c-4.634 2.518-5.37 6.223-5.294 26.636.046 12.641.477 19.621 1.338 21.701 2.791 6.738 11.554 8.381 17.302 3.245l3.266-2.918V11.836l-3.266-2.918c-3.687-3.295-8.879-3.846-13.346-1.418M29.5 33.402C19.137 36.688 10.969 43.63 6.701 52.78L4.5 57.5v264l3.165 6.68c6.41 13.53 17.037 21.153 31.998 22.95 4.661.56 63.972.826 146.337.656l138.5-.286 5.5-2.238c7.716-3.139 15.902-9.968 19.824-16.537 6.536-10.945 6.232-3.493 5.941-145.912L355.5 57.5l-2.781-5.664c-3.564-7.257-9.756-13.457-16.719-16.742-5.206-2.455-6.501-2.612-24.25-2.922L293 31.844v12.618c0 10.55-.321 13.246-1.956 16.452-6.631 12.997-23.569 14.527-32.33 2.921-3.583-4.746-4.702-9.877-4.708-21.585L254 32H106l-.006 10.75c-.007 13.597-1.137 17.656-6.376 22.895-9.601 9.601-24.658 7.166-30.516-4.934C67.319 57.027 67 54.522 67 44.184V32l-16.75.067c-10.577.042-18.224.534-20.75 1.335m2.806 61.011L29.5 96.827v109.336c0 122.422-.568 113.145 7.226 117.99L40.5 326.5H180c130.51 0 139.704-.112 142.671-1.735 1.744-.954 4.219-3.204 5.5-5l2.329-3.265.279-108c.153-59.4.035-109-.262-110.222-.298-1.223-1.521-3.135-2.718-4.25C325.634 92.01 324.902 92 180.367 92H35.112l-2.806 2.413m126.688 32.521c-7.466 2.271-13.68 7.824-16.889 15.09-1.624 3.675-2.03 6.957-2.166 17.5l-.167 12.976h80.568l-.227-12.986c-.261-14.826-1.654-19.389-7.872-25.77-6.388-6.557-11.486-7.757-32.529-7.658-10.016.047-19.34.429-20.718.848m-102.499 32.48c-1.327 1.328-2.702 3.564-3.055 4.97-.887 3.531 10.07 64.719 12.621 70.486 1.11 2.511 4.02 6.428 6.466 8.706l4.447 4.141-4.987 22.842C69.244 283.122 67 294.429 67 295.685c0 1.256 1.293 3.731 2.873 5.499 3.338 3.736 8.18 4.322 12.471 1.51 3.098-2.03 3.91-4.692 9.744-31.944L96.315 251h14.784c8.13 0 14.989.338 15.241.75.252.412 1.65 10.425 3.107 22.25 2.823 22.906 3.63 26.24 6.913 28.54 5.118 3.584 13.824.453 15.117-5.437.347-1.58-.77-14.02-2.482-27.644-3.221-25.626-4.292-29.619-9.161-34.161-5.07-4.729-8.364-5.298-30.691-5.298-18.658 0-21.162-.195-23.145-1.8-1.939-1.571-2.956-5.818-7.962-33.25-3.156-17.298-6.085-32.254-6.508-33.237-2.057-4.772-11.166-6.165-15.033-2.299m234.508.292c-3.278 2.929-3.286 2.961-9.104 34.863-4.996 27.399-6.128 32.179-7.972 33.681-1.893 1.542-4.661 1.753-23.288 1.772-18.344.019-21.673.265-25.18 1.858-4.31 1.957-9.035 6.875-10.625 11.057-1.468 3.862-6.977 51.137-6.311 54.166 1.567 7.138 10.957 9.872 16.132 4.696 2.517-2.517 2.799-3.851 5.416-25.686 1.518-12.668 3.05-23.5 3.404-24.072.398-.645 6.234-1.04 15.334-1.038l14.691.002 4.826 22.748c2.654 12.511 5.354 23.872 6 25.247.646 1.375 2.827 3.308 4.847 4.296 3.342 1.633 3.995 1.661 7.24.305 2.269-.948 4.148-2.709 5.164-4.841 1.538-3.225 1.406-4.241-3.533-27.249l-5.13-23.9 4.319-3.691c2.39-2.044 5.301-5.864 6.518-8.556 2.072-4.581 13.249-63.331 13.249-69.64 0-4.024-3.827-7.757-8.61-8.398-3.544-.476-4.556-.15-7.387 2.38m-186.69 22.396c-7.429 2.15-9.851 11.514-4.39 16.975l2.923 2.923H170v47.05c0 50.232.1 51.328 4.945 53.92 2.47 1.322 7.64 1.322 10.11 0 4.845-2.592 4.945-3.688 4.945-53.92V202h67.154l2.923-2.923c3.405-3.405 3.976-9.129 1.292-12.96-3.625-5.176-2.783-5.124-81.087-5.027-41.147.051-74.167.491-75.969 1.012"/></svg><svg xmlns="http://www.w3.org/2000/svg" width="360" height="360" viewBox="0 0 360 360"><path fill="#A0E0FF" fill-rule="evenodd" d="M77.812 8.023 74.5 11.046l-.302 22.325-.302 22.325 3.652 3.652C80.736 62.536 81.81 63 86 63c4.178 0 5.267-.467 8.4-3.6l3.6-3.6V12.2l-3.6-3.6C91.259 5.459 90.183 5 85.962 5c-3.987 0-5.421.532-8.15 3.023m187.706.394L262 11.833v22.012c0 18.233.258 22.27 1.5 23.512.825.825 1.5 1.91 1.5 2.411 0 1.564 4.9 3.232 9.496 3.232 4.607 0 7.972-2.173 10.352-6.684 1.85-3.509 1.563-41.621-.342-45.305C282.304 6.754 279.179 5 273.796 5c-4.064 0-5.274.499-8.278 3.417m-186.752.501L75.5 11.836v44.328l3.266 2.918c4.782 4.273 10.257 4.095 14.834-.482l3.4-3.4V12.8l-3.4-3.4c-4.577-4.577-10.052-4.755-14.834-.482M266.4 9.4l-3.4 3.4v42.4l3.4 3.4c5.585 5.585 13.492 4.378 17.106-2.611 2.08-4.023 2.159-38.461.1-43.39C281.772 8.21 278.447 6 273.677 6c-3.076 0-4.579.702-7.277 3.4M28.5 32.399c-2.2.696-5.456 2.024-7.237 2.952C17.082 37.53 10 44.043 10 45.709c0 .71-.395 1.291-.877 1.291s-1.945 2.362-3.25 5.25L3.5 57.5v264l2.365 5.865c1.3 3.225 3.213 6.713 4.25 7.75S12 337.313 12 337.695c0 .992 5.214 6.305 6.187 6.305.447 0 1.661.848 2.698 1.885s4.445 2.843 7.572 4.013l5.687 2.128 147.178-.263L328.5 351.5l4.688-2.188c2.578-1.203 5.543-3.003 6.588-4 1.045-.997 2.73-2.292 3.745-2.879 1.015-.587 2.325-1.886 2.912-2.888.587-1.002 2.067-2.936 3.288-4.298 1.222-1.362 3.247-5.013 4.5-8.112l2.279-5.635.27-130c.315-151.62 1.228-138.317-10.287-149.832C336.984 32.17 334.714 31.5 312 31.5h-18.5l-.574 12c-.646 13.486-2.035 17.633-7.52 22.449-7.095 6.229-15.814 6.144-23.068-.225-5.442-4.779-6.69-8.575-7.301-22.224l-.537-12h-149l-.545 12.5c-.704 16.145-3.136 20.981-12.678 25.201-5.592 2.474-10.672 1.745-16.316-2.344-6.435-4.662-7.913-9.057-7.939-23.607L68 31l-17.75.067c-11.356.043-19.191.522-21.75 1.332m1.429.968c-10.228 2.758-18.104 9.516-22.828 19.587L4.5 58.5v262l2.264 5.5c4.716 11.454 12.707 19.208 23.821 23.114 5.25 1.845 10.029 1.898 150.668 1.646l145.247-.26 6.5-3.087c11.103-5.272 19.412-15.872 22.019-28.089.683-3.203.937-47.837.755-132.824-.261-121.94-.362-128.227-2.13-132.786-2.579-6.648-10.525-15.023-17.454-18.394-5.465-2.659-6.412-2.783-23.94-3.14L294 31.809v10.414c0 12.667-1.713 19.139-6.223 23.504-8.761 8.48-20.497 8.05-28.481-1.043-4.25-4.84-5.284-9.126-5.29-21.934L254 32H106v11.804c0 10.733-.238 12.28-2.623 17.067-7.279 14.607-26.978 14.631-34.421.043C67.322 57.712 67 55.013 67 44.54V32l-16.25.067c-9.513.04-18.145.579-20.821 1.3m1.647 61.725-2.602 3.092.263 109.335c.261 108.582.277 109.354 2.322 112.158 1.132 1.553 4.04 3.835 6.461 5.073l4.404 2.25h275.152l4.404-2.25c2.421-1.238 5.329-3.52 6.461-5.073 2.045-2.804 2.061-3.57 2.322-112.783l.263-109.959-2.468-2.467L326.091 92H34.178l-2.602 3.092m1.348.488L30.5 98.161l-.261 107.669-.261 107.67 2.361 4.409c4.615 8.618-7.243 7.975 147.661 8.013 132.667.033 136.612-.02 140.5-1.889 5.557-2.672 6.972-4.02 8.325-7.932.871-2.522 1.175-30.878 1.175-109.8 0-113.132.09-110.901-4.545-112.68-.89-.341-66.528-.621-145.862-.621H35.349l-2.425 2.58m124.326 30.667c-5.112 1.64-3.793 2.721 1.409 1.155 6.586-1.982 36.194-1.934 42.909.069 6.153 1.836 11.611 6.276 15.183 12.353 2.575 4.38 2.771 5.545 3.095 18.426l.346 13.75H140l.022-12.75c.018-10.426.374-13.525 1.951-17 1.061-2.338 1.55-4.25 1.087-4.25-.464 0-1.567 1.809-2.451 4.02-2.058 5.143-2.342 29.399-.359 30.652 1.856 1.172 77.993 1.224 79.5.054 1.977-1.535 1.696-25.571-.359-30.706-.884-2.211-2.009-4.02-2.5-4.02-.49 0-.779-.403-.641-.896.137-.492-1.709-2.716-4.102-4.941-6.871-6.385-10.532-7.179-32.576-7.061-10.49.056-20.535.571-22.322 1.145m-5.25 2.586c0 .642-.465 1.167-1.033 1.167-.569 0-2.609 1.575-4.534 3.5-1.925 1.925-3.147 3.482-2.716 3.459 1.423-.075 9.594-7.981 8.932-8.644-.357-.356-.649-.123-.649.518m-94.89 28.563c-2.901 1.607-5.027 5.221-5.075 8.625-.019 1.386 2.47 16.686 5.531 34C62.732 229.241 65.493 240 67.827 240c.517 0 1.174.898 1.461 1.995.287 1.097 1.352 2.309 2.367 2.694 4.431 1.679 4.42 2.039-.791 25.919-5.321 24.387-5.504 27.882-1.668 31.927 3.889 4.102 14.259 3.22 16.745-1.425C86.704 299.684 97 254.368 97 252.434c0-.831 27.886-.428 28.404.411.288.465 1.679 10.252 3.093 21.75 3.138 25.53 3.029 25.022 5.998 27.991 1.92 1.92 3.456 2.414 7.505 2.414 5.682 0 9.358-2.594 10.581-7.467.891-3.551-5.222-51.737-7.149-56.349-2.045-4.895-5.104-8.066-9.932-10.294-3.475-1.604-6.716-1.849-24.703-1.868-13.338-.014-21.594-.428-23.208-1.164-2.931-1.335-2.621-.068-9.424-38.425-4.76-26.839-4.828-27.094-8.131-30.25-3.685-3.522-8.575-4.198-12.924-1.787m232.894 1.75c-3.274 3.13-3.324 3.323-9.098 35.117-3.193 17.583-5.94 32.081-6.106 32.218-2.525 2.087-6.856 2.519-25.266 2.519-22.478 0-25.203.515-30.443 5.755-1.551 1.551-3.539 4.211-4.419 5.912-1.861 3.598-8.184 53.158-7.254 56.861.328 1.308 1.679 3.636 3.003 5.175 2.034 2.365 3.173 2.797 7.379 2.797 4.075 0 5.462-.49 7.686-2.713 2.588-2.589 2.84-3.764 5.472-25.617 1.518-12.598 3.075-23.414 3.46-24.037.466-.755 5.273-1.133 14.392-1.133h13.692l5.226 24.25c6.029 27.975 6.444 28.75 15.373 28.75 3.927 0 5.499-.509 7.378-2.388 4.051-4.051 3.902-7.428-1.393-31.612l-4.927-22.5 3.921-3.333c2.156-1.833 3.92-3.971 3.92-4.75 0-.779.413-1.417.917-1.417.505 0 1.626-1.912 2.491-4.25 1.619-4.37 12.592-63.807 12.592-68.202 0-6.189-4.67-10.548-11.302-10.548-2.45 0-4.322.88-6.694 3.146m-232.116-.696c-5.637 3.171-5.62 4.464.526 39.253 3.09 17.488 6.292 33.628 7.116 35.867 1.544 4.197 6.498 10.271 9.91 12.152 1.883 1.039 1.786 1.772-3.304 25.035-3.343 15.278-5.002 24.927-4.578 26.62.965 3.845 5.002 6.623 9.625 6.623 6.761 0 7.897-2.201 12.758-24.719 2.349-10.879 4.75-21.918 5.336-24.531l1.066-4.75h13.638c9.334 0 14.174.394 15.34 1.25 1.337.982 2.235 5.54 4.186 21.25 1.365 11 2.74 21.513 3.054 23.362.813 4.783 4.506 8.138 8.959 8.138 4.907 0 7.382-1.522 9.079-5.582 1.287-3.081 1.123-5.891-1.641-28.17-3.479-28.044-4.651-31.679-11.846-36.739l-4.278-3.009-22.767-.5c-23.465-.515-25.249-.841-26.515-4.84-.288-.913-2.976-15.345-5.972-32.071-4.771-26.636-5.742-30.705-7.817-32.781-2.968-2.967-8.393-3.816-11.875-1.858m233.082 1.3c-2.997 2.692-3.184 3.423-8.834 34.643-5.118 28.28-6.031 32.104-8.065 33.75-2.063 1.671-4.305 1.858-22.432 1.863-21.763.006-25.878.641-30.76 4.749-5.325 4.481-6.541 8.896-9.802 35.606-2.735 22.396-2.89 25.152-1.59 28.263 1.987 4.755 7.154 6.971 11.763 5.044 1.788-.747 3.86-2.094 4.606-2.993.841-1.014 2.369-10.333 4.021-24.527 1.675-14.379 3.177-23.508 4.039-24.547 1.18-1.422 3.355-1.615 15.478-1.378l14.106.277 5.074 23.5c2.791 12.925 5.614 24.502 6.273 25.727 1.593 2.959 4.247 4.273 8.633 4.273 5.598 0 8.838-3.891 8.743-10.5-.008-.55-2.191-11.315-4.852-23.922-4.07-19.293-4.602-22.998-3.354-23.394 2.78-.884 8.757-8.024 10.345-12.359.871-2.379 4.123-18.618 7.227-36.088 6.211-34.961 6.222-36.232.32-39.284-4.19-2.167-7.523-1.772-10.939 1.297M98.923 183.923c-2.478 2.478-2.923 3.712-2.923 8.099 0 4.5.405 5.554 3.106 8.077l3.106 2.901H169v47.066c0 32.694.341 47.732 1.117 49.25 2.767 5.411 9.82 7.319 15.738 4.259 5.091-2.633 5.145-3.196 5.145-53.622V203l33.25-.022c29.994-.02 33.459-.192 35.383-1.75 3.076-2.492 4.367-5.519 4.367-10.239 0-3.246-.633-4.776-2.923-7.066L258.154 181H101.846l-2.923 2.923m1 1c-3.295 3.295-3.816 7.449-1.498 11.932 2.549 4.93 4.186 5.145 39.122 5.145H170v46.599c0 39.994.219 47.061 1.548 49.861 3.465 7.303 13.439 7.303 16.904 0 1.329-2.8 1.548-9.867 1.548-49.861V202h32.453c23.031 0 33.214-.347 35.075-1.195 2.866-1.306 5.472-5.499 5.472-8.805 0-2.934-2.65-7.742-4.945-8.97-1.271-.681-27.912-1.03-78.566-1.03h-76.643l-2.923 2.923"/></svg><svg xmlns="http://www.w3.org/2000/svg" width="360" height="360" viewBox="0 0 360 360"><path fill="#20A0E0" fill-rule="evenodd" d="M78.4 9.4 75 12.8v20.553c0 13.402.402 21.434 1.154 23.086 3.492 7.664 16.2 7.664 19.692 0 1.553-3.41 1.585-41.727.037-44.755-1.931-3.777-5.132-5.638-9.733-5.662-3.629-.018-4.913.541-7.75 3.378m187.814-.46C262.401 12.753 262 15.138 262 34c0 18.679.397 21.143 4.033 25.036 2.31 2.472 3.549 2.964 7.468 2.964 4.011 0 5.197-.498 8.099-3.4l3.4-3.4V12.8l-3.4-3.4c-2.864-2.864-4.113-3.4-7.923-3.4-3.672 0-5.076.553-7.463 2.94M27.268 33.955C18.309 37.18 10.646 44.208 6.637 52.878L4.5 57.5v264l3.165 6.68c5.837 12.322 16.068 20.406 28.769 22.733 7.931 1.453 278.968 1.528 286.606.079 12.98-2.461 23.546-10.675 29.267-22.751l3.193-6.741v-264l-2.648-5.648c-3.372-7.192-9.512-13.332-16.704-16.704-5.38-2.522-6.538-2.663-24.398-2.959l-18.75-.31v12.61c0 9.628-.382 13.367-1.617 15.811-3.832 7.585-9.254 11.023-17.383 11.023-8.238 0-13.537-3.42-17.535-11.317-1.385-2.735-1.79-6.155-1.867-15.744l-.098-12.249-74.25-.006L106 32v10.318c0 12.61-1.725 19.082-6.223 23.339-4.663 4.415-7.472 5.619-13.225 5.669-6.643.057-12.725-3.121-16.301-8.518-2.6-3.924-2.769-4.883-3.078-17.48L66.845 32l-17.172.036c-14.235.03-18.068.358-22.405 1.919m5.367 60.118L30 96.145l.004 110.178c.003 106.032.074 110.293 1.882 113.257 1.033 1.694 3.619 3.944 5.746 5 3.758 1.866 7.81 1.92 142.941 1.92h139.073l4.074-2.696c7.809-5.168 7.367 2.284 7.056-118.974L330.5 97.161l-2.424-2.581-2.425-2.58H35.27l-2.635 2.073M155.5 128.315c-5.617 2.664-11.907 9.079-14.262 14.545-1.138 2.642-1.592 7.204-1.653 16.64l-.085 13h81l-.006-11.5c-.008-14.071-1.45-19.533-6.749-25.552-7.365-8.367-9.284-8.908-32.745-9.226-19.792-.269-20.673-.197-25.5 2.093m-99.577 31.608C54.061 161.785 53 163.88 53 165.694c0 1.566 2.496 16.959 5.546 34.207 6.037 34.134 6.969 37.033 14.048 43.695l4.352 4.095-4.973 22.635C69.238 282.775 67 294.06 67 295.403c0 3.295 4.384 8.303 7.954 9.087 3.726.818 8.568-1.635 10.377-5.257.751-1.503 3.536-12.971 6.189-25.483L96.343 251h14.769c8.124 0 14.984.346 15.246.77.261.423 1.692 10.661 3.179 22.75 1.486 12.089 3.079 22.969 3.538 24.178 1.197 3.147 5.605 5.707 9.629 5.593 4.243-.12 8.048-3.436 8.837-7.701.614-3.318-4.979-49.981-6.456-53.867-1.515-3.984-6.318-8.924-10.544-10.843-3.505-1.593-6.834-1.839-25.102-1.858-19.542-.02-21.214-.164-23.172-1.988-2.753-2.565-2.41-1.144-8.226-34.034-2.772-15.675-5.553-29.759-6.181-31.297-2.468-6.046-11.155-7.562-15.937-2.78m236.497-1.778c-3.618 1.755-5.168 5.952-7.887 21.357-8.466 47.966-8.017 45.94-10.734 48.47-2.045 1.906-3.461 2.028-23.527 2.028-19.162 0-21.742.199-25.157 1.941-5.483 2.797-9.685 8.05-10.96 13.701-1.895 8.398-6.31 48.376-5.666 51.307.832 3.79 4.484 7.01 8.73 7.699 2.92.474 4.061.074 6.822-2.393l3.315-2.962 2.774-22.802c1.526-12.54 3.012-23.418 3.301-24.173.42-1.094 3.501-1.316 15.232-1.095l14.704.277 5.169 23.83c4.29 19.775 5.577 24.238 7.567 26.226 3.622 3.62 7.713 4.05 11.865 1.248 5.718-3.859 5.724-5.554.116-31.707l-5.018-23.403 4.383-3.858c2.411-2.122 5.29-5.766 6.397-8.097 1.978-4.163 13.154-63.513 13.154-69.854 0-4.323-4.768-8.907-9.173-8.817-1.83.037-4.263.521-5.407 1.077m-188.136 23.556c-3.673.711-7.284 5.892-7.284 10.453 0 3.088.667 4.666 2.923 6.923l2.923 2.923H170v47.05c0 50.232.1 51.328 4.945 53.92 2.47 1.322 7.64 1.322 10.11 0 4.845-2.592 4.945-3.688 4.945-53.92V202h67.154l2.923-2.923c5.094-5.094 3.598-13.125-3.088-16.583-2.494-1.29-12.986-1.475-76.689-1.358-40.59.075-74.797.329-76.016.565"/></svg><svg xmlns="http://www.w3.org/2000/svg" width="360" height="360" viewBox="0 0 360 360"><path fill="#C0E0FF" fill-rule="evenodd" d="M77.812 8.023 74.5 11.046l-.302 22.325-.302 22.325 3.652 3.652C80.736 62.536 81.81 63 86 63c4.178 0 5.267-.467 8.4-3.6l3.6-3.6V12.2l-3.6-3.6C91.259 5.459 90.183 5 85.962 5c-3.987 0-5.421.532-8.15 3.023m187.706.394L262 11.833v21.502c0 21.17.304 24.665 2.142 24.665.534 0 .489-.821-.107-1.934-.618-1.155-1.035-10.267-1.035-22.6V12.8l3.4-3.4c2.723-2.723 4.189-3.4 7.365-3.4 4.597 0 8.39 2.545 10.159 6.817.831 2.006 1.101 9.055.886 23.118l-.31 20.233-3.266 2.916c-3.797 3.391-9.725 3.951-13.769 1.301-1.356-.888-2.465-1.185-2.465-.661 0 1.604 4.848 3.276 9.496 3.276 4.607 0 7.972-2.173 10.352-6.684 1.85-3.509 1.563-41.621-.342-45.305C282.304 6.754 279.179 5 273.796 5c-4.064 0-5.274.499-8.278 3.417M78.4 9.4 75 12.8v42.4l3.4 3.4c2.787 2.787 4.157 3.4 7.6 3.4 3.443 0 4.813-.613 7.6-3.4l3.4-3.4V12.8l-3.4-3.4C90.813 6.613 89.443 6 86 6c-3.443 0-4.813.613-7.6 3.4M28.5 32.399c-2.2.696-5.456 2.024-7.237 2.952C17.433 37.347 10 43.99 10 45.417c0 .55 1.912-.871 4.25-3.158 2.337-2.287 6.95-5.418 10.25-6.958 5.771-2.694 6.696-2.814 24.25-3.13l18.25-.33.022 12.33c.026 14.636 1.494 19.017 7.939 23.686 8.052 5.833 17.456 4.989 24.657-2.212 5.239-5.239 6.369-9.298 6.376-22.895L106 32h148v10.634c0 13.044 1.278 17.582 6.473 22.983 8.552 8.893 21.37 8.011 29.001-1.994 1.682-2.206 2.852-5.17 3.092-7.836l.385-4.287-1.045 4.305c-1.357 5.589-7.963 12.559-13.446 14.187-5.325 1.58-11.246.013-16.122-4.268-5.442-4.779-6.69-8.575-7.301-22.224l-.537-12h-149l-.545 12.5c-.704 16.145-3.136 20.981-12.678 25.201-5.592 2.474-10.672 1.745-16.316-2.344-6.435-4.662-7.913-9.057-7.939-23.607L68 31l-17.75.067c-11.356.043-19.191.522-21.75 1.332m283.5-.472c19.778.673 22.728 1.34 29.802 6.735 2.98 2.274 3.271 2.342 2.309.546-.605-1.131-3.69-3.327-6.855-4.882-5.675-2.786-6.024-2.827-24.756-2.928l-19-.101 18.5.63m38.53 16.117c1.809 2.689 3.781 7.177 4.38 9.972.754 3.517 1.09 44.162 1.09 131.944 0 122.874-.061 127.058-1.946 133.113-3.516 11.299-11.924 20.813-22.696 25.683-3.525 1.593-10.384 1.79-79.358 2.272l-75.5.527 76-.027 76-.028 4.688-2.188c2.578-1.203 5.543-3.003 6.588-4 1.045-.997 2.73-2.292 3.745-2.879 1.015-.587 2.325-1.886 2.912-2.888.587-1.002 2.067-2.936 3.288-4.298 1.222-1.362 3.247-5.013 4.5-8.112l2.279-5.635.268-129.931c.242-116.869.107-130.491-1.338-135.5-1.791-6.206-4.763-11.599-6.831-12.392-.748-.288.121 1.678 1.931 4.367M5.873 52.25 3.5 57.5l-.267 129c-.178 86.223.077 130.658.77 134 1.245 6.002 5.495 15.5 6.936 15.5.568 0 .131-1.462-.97-3.25-1.101-1.787-2.895-6.11-3.986-9.605C4.049 316.947 4 313.631 4 189.576 4 76.21 4.173 61.78 5.59 57.009c.874-2.945 2.276-6.401 3.115-7.681C9.544 48.047 9.784 47 9.238 47c-.545 0-2.06 2.362-3.365 5.25m26.051 42.33L29.5 97.161l-.276 107.669c-.246 96.098-.106 108.118 1.303 111.841.868 2.294 2.288 4.761 3.156 5.481.982.815.58-.599-1.066-3.747l-2.644-5.055.264-107.595.263-107.594 2.424-2.581L35.349 93h144.825c142.871 0 144.853.027 146.801 1.975 1.086 1.086 2.224 2.998 2.529 4.25.938 3.849.062 216.129-.901 218.275-.756 1.684-.676 1.795.5.7 1.176-1.094 1.441-18.408 1.676-109.5.153-59.51.029-109.224-.275-110.475-.305-1.252-1.443-3.164-2.529-4.25C326.027 92.027 324.04 92 180.174 92H34.349l-2.425 2.58m125.326 31.667c-1.787.573-3.25 1.407-3.25 1.853 0 .446 1.857.156 4.126-.644 3.015-1.064 8.888-1.456 21.822-1.456 20.403 0 24.38.896 31.4 7.075 6.149 5.413 7.241 4.965 1.268-.519-7.425-6.817-10.778-7.573-33.044-7.454-10.49.056-20.535.571-22.322 1.145m-5.25 2.586c0 .642-.465 1.167-1.033 1.167-.569 0-2.609 1.575-4.534 3.5-1.925 1.925-3.147 3.482-2.716 3.459 1.423-.075 9.594-7.981 8.932-8.644-.357-.356-.649-.123-.649.518m-11.391 13.187c-1.236 3.088-1.566 7.088-1.424 17.25l.185 13.23.57-14c.436-10.693.989-14.768 2.341-17.25.974-1.787 1.358-3.25.853-3.25-.504 0-1.641 1.809-2.525 4.02m77.107-.77c1.334 2.452 1.909 6.563 2.343 16.75l.574 13.5.184-12.73c.139-9.702-.2-13.686-1.426-16.75-.884-2.211-2.021-4.02-2.525-4.02-.505 0-.122 1.463.85 3.25M57.11 157.396c-2.901 1.607-5.027 5.221-5.075 8.625-.019 1.386 2.47 16.686 5.531 34C62.707 229.098 65.495 240 67.791 240c.497 0-.138-2.137-1.412-4.75-1.624-3.334-4.011-14.339-8.004-36.913-6.274-35.465-6.283-36.782-.284-39.884 4.213-2.179 7.525-1.768 11.035 1.368 3.126 2.793 3.216 3.144 8.855 34.661 5.039 28.158 5.96 32.052 7.969 33.679 2.044 1.654 4.371 1.839 23.193 1.839 22.327 0 25.621.569 30.691 5.298 4.806 4.483 5.854 8.415 9.098 34.142 1.729 13.715 2.868 26.196 2.529 27.736-1.435 6.536-11.155 9.221-15.966 4.41-2.969-2.969-2.86-2.461-5.998-27.991-1.414-11.498-2.805-21.285-3.093-21.75-.287-.465-7.18-.845-15.318-.845H96.289l-5.165 23.604c-2.84 12.981-5.641 24.493-6.223 25.581-.582 1.088-2.486 2.599-4.23 3.357-1.997.869-2.499 1.394-1.355 1.419 2.513.054 5.448-1.652 6.625-3.851C86.704 299.684 97 254.368 97 252.434c0-.831 27.886-.428 28.404.411.288.465 1.679 10.252 3.093 21.75 3.138 25.53 3.029 25.022 5.998 27.991 1.92 1.92 3.456 2.414 7.505 2.414 5.682 0 9.358-2.594 10.581-7.467.891-3.551-5.222-51.737-7.149-56.349-2.045-4.895-5.104-8.066-9.932-10.294-3.475-1.604-6.716-1.849-24.703-1.868-13.338-.014-21.594-.428-23.208-1.164-2.931-1.335-2.621-.068-9.424-38.425-4.76-26.839-4.828-27.094-8.131-30.25-3.685-3.522-8.575-4.198-12.924-1.787m232.894 1.75c-3.274 3.13-3.324 3.323-9.098 35.117-3.193 17.583-5.94 32.081-6.106 32.218-2.525 2.087-6.856 2.519-25.266 2.519-22.478 0-25.203.515-30.443 5.755-1.551 1.551-3.539 4.211-4.419 5.912-1.861 3.598-8.184 53.158-7.254 56.861.328 1.308 1.679 3.636 3.003 5.175 2.034 2.365 3.173 2.797 7.379 2.797 4.075 0 5.462-.49 7.686-2.713 2.588-2.589 2.84-3.764 5.472-25.617 1.518-12.598 3.075-23.414 3.46-24.037.466-.755 5.273-1.133 14.392-1.133h13.692l5.226 24.25c4.614 21.41 5.528 24.514 7.805 26.5 1.418 1.238 3.791 2.209 5.273 2.16 2.675-.09 2.673-.097-.387-.985-1.695-.492-3.849-1.743-4.788-2.78-1.076-1.189-3.656-10.84-6.983-26.12l-5.278-24.233-14.434.153c-7.94.085-14.811.53-15.271.99-.46.46-2.089 11.281-3.621 24.048-2.632 21.945-2.928 23.355-5.414 25.842-5.046 5.046-14.33 2.489-16.065-4.424-.678-2.698 4.903-50.87 6.326-54.615 1.537-4.042 6.317-8.976 10.568-10.906 3.507-1.593 6.836-1.839 25.18-1.858 18.79-.02 21.385-.221 23.346-1.809 1.907-1.544 2.869-5.463 7.062-28.75 6.82-37.884 6.591-36.981 10.094-39.928 5.047-4.247 12.38-2.52 14.874 3.501 1.153 2.785.655 6.744-4.505 35.798-3.575 20.131-6.559 34.201-7.777 36.666-1.086 2.2-3.965 5.872-6.397 8.161l-4.422 4.16 5.05 23.606c4.761 22.259 4.965 23.807 3.58 27.122-.955 2.284-2.621 4.016-4.757 4.944-2.801 1.218-2.948 1.435-.992 1.468 3.118.053 6.948-4.005 7.645-8.099.371-2.182-1.156-11.257-4.354-25.862l-4.927-22.5 3.921-3.333c2.156-1.833 3.92-3.971 3.92-4.75 0-.779.413-1.417.917-1.417.505 0 1.626-1.912 2.491-4.25 1.619-4.37 12.592-63.807 12.592-68.202 0-6.189-4.67-10.548-11.302-10.548-2.45 0-4.322.88-6.694 3.146m-148.191 14.537c.721.289 1.584.253 1.916-.079.332-.332-.258-.568-1.312-.525-1.165.048-1.402.285-.604.604m4.437.006c.963.252 2.537.252 3.5 0 .963-.251.175-.457-1.75-.457s-2.713.206-1.75.457m11.5-.027c.688.278 1.813.278 2.5 0 .688-.277.125-.504-1.25-.504s-1.937.227-1.25.504m15.5.054c1.512.229 3.988.229 5.5 0s.275-.416-2.75-.416-4.262.187-2.75.416m12.563-.033c.721.289 1.584.253 1.916-.079.332-.332-.258-.568-1.312-.525-1.165.048-1.402.285-.604.604m6.437.006c.963.252 2.537.252 3.5 0 .963-.251.175-.457-1.75-.457s-2.713.206-1.75.457m17.5.034c1.787.222 4.713.222 6.5 0 1.787-.221.325-.403-3.25-.403s-5.037.182-3.25.403m-110.827 10.2c-2.478 2.478-2.923 3.712-2.923 8.099 0 4.5.405 5.554 3.106 8.077l3.106 2.901H169v47.066c0 32.694.341 47.732 1.117 49.25 2.767 5.411 9.82 7.319 15.738 4.259 5.091-2.633 5.145-3.196 5.145-53.622V203l33.25-.022c29.994-.02 33.459-.192 35.383-1.75 3.076-2.492 4.367-5.519 4.367-10.239 0-5.487-4.224-10.039-9.173-9.887l-3.327.103 3.484.819c7.935 1.866 10.678 10.915 5.115 16.87L257.198 202H190v47.066c0 32.694-.341 47.732-1.117 49.25-3.848 7.523-13.918 7.523-17.766 0-.776-1.518-1.117-16.556-1.117-49.25V202h-67.154l-2.923-2.923c-5.918-5.918-2.768-15.471 5.634-17.088l3.943-.759-3.827-.115c-2.986-.09-4.469.527-6.75 2.808m-29.765 58.052c.254.76 1.315 1.864 2.359 2.454 4.581 2.585 4.592 2.146-.653 26.179-3.037 13.92-4.795 24.186-4.484 26.195.658 4.25 4.382 8.192 7.62 8.064 2.051-.081 2.141-.186.5-.583-3.165-.765-6.42-4.328-7.028-7.694-.346-1.911 1.364-11.785 4.484-25.888C74.73 258.163 77 247.739 77 247.536c0-.202-1.868-1.847-4.151-3.656-2.283-1.808-3.944-2.666-3.691-1.905m256.278 79.129c-.376.607-2.54 1.948-4.809 2.978-3.969 1.802-9.344 1.875-140.409 1.896-119.437.019-136.73-.165-139.904-1.491-1.991-.832-3.846-1.288-4.121-1.013-.275.275 1.13 1.181 3.121 2.013 3.175 1.326 20.575 1.51 140.904 1.491 130.585-.021 137.477-.111 141.282-1.841 4.035-1.836 7.686-5.137 5.681-5.137-.584 0-1.37.497-1.745 1.104M12 337.617c0 1.292 5.817 6.9 6.475 6.242.272-.273-1.073-2.016-2.99-3.874-1.917-1.857-3.485-2.923-3.485-2.368m8 7.609c0 .486 2.587 2.097 5.75 3.579l5.75 2.695 72.5.026 72.5.026-72.038-.526-72.038-.526-6.212-3.08c-3.417-1.693-6.212-2.681-6.212-2.194"/></svg></svg>